<svg class="main-svg" xmlns="http://www.w3.org/2000/svg" xmlns:xlink="http://www.w3.org/1999/xlink" width="500" height="560" style="" viewBox="0 0 500 560"><rect x="0" y="0" width="500" height="560" style="fill: rgb(255, 255, 255); fill-opacity: 1;"/><defs id="defs-e65506"><g class="clips"><clipPath id="clipe65506xyplot" class="plotclip"><rect width="270" height="380"/></clipPath><clipPath class="axesclip" id="clipe65506x"><rect x="80" y="0" width="270" height="560"/></clipPath><clipPath class="axesclip" id="clipe65506y"><rect x="0" y="100" width="500" height="380"/></clipPath><clipPath class="axesclip" id="clipe65506xy"><rect x="80" y="100" width="270" height="380"/></clipPath></g><g class="gradients"/><g class="patterns"/></defs><g class="bglayer"/><g class="layer-below"><g class="imagelayer"/><g class="shapelayer"/></g><g class="cartesianlayer"><g class="subplot xy"><g class="layer-subplot"><g class="shapelayer"/><g class="imagelayer"/></g><g class="minor-gridlayer"><g class="x"/><g class="y"/></g><g class="gridlayer"><g class="x"><path class="xgrid crisp" transform="translate(113.75,0)" d="M0,100v380" style="stroke: rgb(232, 232, 232); stroke-opacity: 1; stroke-width: 1px;"/><path class="xgrid crisp" transform="translate(181.25,0)" d="M0,100v380" style="stroke: rgb(232, 232, 232); stroke-opacity: 1; stroke-width: 1px;"/><path class="xgrid crisp" transform="translate(248.75,0)" d="M0,100v380" style="stroke: rgb(232, 232, 232); stroke-opacity: 1; stroke-width: 1px;"/><path class="xgrid crisp" transform="translate(316.25,0)" d="M0,100v380" style="stroke: rgb(232, 232, 232); stroke-opacity: 1; stroke-width: 1px;"/></g><g class="y"><path class="ygrid crisp" transform="translate(0,461)" d="M80,0h270" style="stroke: rgb(232, 232, 232); stroke-opacity: 1; stroke-width: 1px;"/><path class="ygrid crisp" transform="translate(0,389.77)" d="M80,0h270" style="stroke: rgb(232, 232, 232); stroke-opacity: 1; stroke-width: 1px;"/><path class="ygrid crisp" transform="translate(0,318.55)" d="M80,0h270" style="stroke: rgb(232, 232, 232); stroke-opacity: 1; stroke-width: 1px;"/><path class="ygrid crisp" transform="translate(0,247.32)" d="M80,0h270" style="stroke: rgb(232, 232, 232); stroke-opacity: 1; stroke-width: 1px;"/><path class="ygrid crisp" transform="translate(0,176.1)" d="M80,0h270" style="stroke: rgb(232, 232, 232); stroke-opacity: 1; stroke-width: 1px;"/><path class="ygrid crisp" transform="translate(0,104.87)" d="M80,0h270" style="stroke: rgb(232, 232, 232); stroke-opacity: 1; stroke-width: 1px;"/></g></g><g class="zerolinelayer"/><path class="xlines-below"/><path class="ylines-below"/><g class="overlines-below"/><g class="xaxislayer-below"/><g class="yaxislayer-below"/><g class="overaxes-below"/><g class="plot" transform="translate(80,100)" clip-path="url(#clipe65506xyplot)"><g class="boxlayer mlayer"><g class="trace boxes" style="opacity: 1;"><path class="box" d="M17.21,361H50.29M17.21,361H50.29V361H17.21ZM33.75,361V361M33.75,361V361M30.44,361H37.06M30.44,361H37.06" style="vector-effect: non-scaling-stroke; stroke-width: 1px; stroke: rgb(150, 150, 150); stroke-opacity: 1; fill: rgb(150, 150, 150); fill-opacity: 0.5;"/><g class="points"><path class="point" transform="translate(33.75,361)" d="M5,0A5,5 0 1,1 0,-5A5,5 0 0,1 5,0Z" style="opacity: 1; stroke-width: 0px; fill: rgb(150, 150, 150); fill-opacity: 1;"/><path class="point" transform="translate(33.75,361)" d="M5,0A5,5 0 1,1 0,-5A5,5 0 0,1 5,0Z" style="opacity: 1; stroke-width: 0px; fill: rgb(150, 150, 150); fill-opacity: 1;"/><path class="point" transform="translate(33.75,361)" d="M5,0A5,5 0 1,1 0,-5A5,5 0 0,1 5,0Z" style="opacity: 1; stroke-width: 0px; fill: rgb(150, 150, 150); fill-opacity: 1;"/></g></g><g class="trace boxes" style="opacity: 1;"><path class="box" d="M84.71,89.65H117.79M84.71,97.15H117.79V36.66H84.71ZM101.25,97.15V99.65M101.25,36.66V19M97.94,99.65H104.56M97.94,19H104.56" style="vector-effect: non-scaling-stroke; stroke-width: 1px; stroke: rgb(77, 175, 74); stroke-opacity: 1; fill: rgb(77, 175, 74); fill-opacity: 0.5;"/><g class="points"><path class="point" transform="translate(101.25,99.65)" d="M5,0A5,5 0 1,1 0,-5A5,5 0 0,1 5,0Z" style="opacity: 1; stroke-width: 0px; fill: rgb(77, 175, 74); fill-opacity: 1;"/><path class="point" transform="translate(101.25,89.65)" d="M5,0A5,5 0 1,1 0,-5A5,5 0 0,1 5,0Z" style="opacity: 1; stroke-width: 0px; fill: rgb(77, 175, 74); fill-opacity: 1;"/><path class="point" transform="translate(101.25,19)" d="M5,0A5,5 0 1,1 0,-5A5,5 0 0,1 5,0Z" style="opacity: 1; stroke-width: 0px; fill: rgb(77, 175, 74); fill-opacity: 1;"/></g></g><g class="trace boxes" style="opacity: 1;"><path class="box" d="M152.21,360H185.29M152.21,361H185.29V175.73H152.21ZM168.75,361V361M168.75,175.73V113.98M165.44,361H172.06M165.44,113.98H172.06" style="vector-effect: non-scaling-stroke; stroke-width: 1px; stroke: rgb(55, 126, 184); stroke-opacity: 1; fill: rgb(55, 126, 184); fill-opacity: 0.5;"/><g class="points"><path class="point" transform="translate(168.75,361)" d="M5,0A5,5 0 1,1 0,-5A5,5 0 0,1 5,0Z" style="opacity: 1; stroke-width: 0px; fill: rgb(55, 126, 184); fill-opacity: 1;"/><path class="point" transform="translate(168.75,361)" d="M5,0A5,5 0 1,1 0,-5A5,5 0 0,1 5,0Z" style="opacity: 1; stroke-width: 0px; fill: rgb(55, 126, 184); fill-opacity: 1;"/><path class="point" transform="translate(168.75,113.98)" d="M5,0A5,5 0 1,1 0,-5A5,5 0 0,1 5,0Z" style="opacity: 1; stroke-width: 0px; fill: rgb(55, 126, 184); fill-opacity: 1;"/></g></g><g class="trace boxes" style="opacity: 1;"><path class="box" d="M219.71,142.54H252.79M219.71,157.28H252.79V111.7H219.71ZM236.25,157.28V162.2M236.25,111.7V101.43M232.94,162.2H239.56M232.94,101.43H239.56" style="vector-effect: non-scaling-stroke; stroke-width: 1px; stroke: rgb(152, 78, 163); stroke-opacity: 1; fill: rgb(152, 78, 163); fill-opacity: 0.5;"/><g class="points"><path class="point" transform="translate(236.25,162.2)" d="M5,0A5,5 0 1,1 0,-5A5,5 0 0,1 5,0Z" style="opacity: 1; stroke-width: 0px; fill: rgb(152, 78, 163); fill-opacity: 1;"/><path class="point" transform="translate(236.25,142.54)" d="M5,0A5,5 0 1,1 0,-5A5,5 0 0,1 5,0Z" style="opacity: 1; stroke-width: 0px; fill: rgb(152, 78, 163); fill-opacity: 1;"/><path class="point" transform="translate(236.25,101.43)" d="M5,0A5,5 0 1,1 0,-5A5,5 0 0,1 5,0Z" style="opacity: 1; stroke-width: 0px; fill: rgb(152, 78, 163); fill-opacity: 1;"/></g></g></g></g><g class="overplot"/><path class="xlines-above crisp" d="M79,480.5H350" style="fill: none; stroke-width: 1px; stroke: rgb(36, 36, 36); stroke-opacity: 1;"/><path class="ylines-above crisp" d="M79.5,100V480" style="fill: none; stroke-width: 1px; stroke: rgb(36, 36, 36); stroke-opacity: 1;"/><g class="overlines-above"/><g class="xaxislayer-above"><path class="xtick ticks crisp" d="M0,481v5" transform="translate(113.75,0)" style="stroke: rgb(68, 68, 68); stroke-opacity: 1; stroke-width: 1px;"/><path class="xtick ticks crisp" d="M0,481v5" transform="translate(181.25,0)" style="stroke: rgb(68, 68, 68); stroke-opacity: 1; stroke-width: 1px;"/><path class="xtick ticks crisp" d="M0,481v5" transform="translate(248.75,0)" style="stroke: rgb(68, 68, 68); stroke-opacity: 1; stroke-width: 1px;"/><path class="xtick ticks crisp" d="M0,481v5" transform="translate(316.25,0)" style="stroke: rgb(68, 68, 68); stroke-opacity: 1; stroke-width: 1px;"/><g class="xtick"><text text-anchor="middle" x="0" y="500.4" transform="translate(113.75,0)" style="font-family: 'Open Sans', verdana, arial, sans-serif; font-size: 12px; fill: rgb(36, 36, 36); fill-opacity: 1; white-space: pre; opacity: 1;">Control</text></g><g class="xtick"><text text-anchor="middle" x="0" y="500.4" transform="translate(181.25,0)" style="font-family: 'Open Sans', verdana, arial, sans-serif; font-size: 12px; fill: rgb(36, 36, 36); fill-opacity: 1; white-space: pre; opacity: 1;">DSS</text></g><g class="xtick"><text text-anchor="middle" x="0" y="500.4" transform="translate(248.75,0)" style="font-family: 'Open Sans', verdana, arial, sans-serif; font-size: 12px; fill: rgb(36, 36, 36); fill-opacity: 1; white-space: pre; opacity: 1;">RCJ</text></g><g class="xtick"><text text-anchor="middle" x="0" y="500.4" transform="translate(316.25,0)" style="font-family: 'Open Sans', verdana, arial, sans-serif; font-size: 12px; fill: rgb(36, 36, 36); fill-opacity: 1; white-space: pre; opacity: 1;">RCJ_plus_DSS</text></g></g><g class="yaxislayer-above"><path class="ytick ticks crisp" d="M79,0h-5" transform="translate(0,461)" style="stroke: rgb(68, 68, 68); stroke-opacity: 1; stroke-width: 1px;"/><path class="ytick ticks crisp" d="M79,0h-5" transform="translate(0,389.77)" style="stroke: rgb(68, 68, 68); stroke-opacity: 1; stroke-width: 1px;"/><path class="ytick ticks crisp" d="M79,0h-5" transform="translate(0,318.55)" style="stroke: rgb(68, 68, 68); stroke-opacity: 1; stroke-width: 1px;"/><path class="ytick ticks crisp" d="M79,0h-5" transform="translate(0,247.32)" style="stroke: rgb(68, 68, 68); stroke-opacity: 1; stroke-width: 1px;"/><path class="ytick ticks crisp" d="M79,0h-5" transform="translate(0,176.1)" style="stroke: rgb(68, 68, 68); stroke-opacity: 1; stroke-width: 1px;"/><path class="ytick ticks crisp" d="M79,0h-5" transform="translate(0,104.87)" style="stroke: rgb(68, 68, 68); stroke-opacity: 1; stroke-width: 1px;"/><g class="ytick"><text text-anchor="end" x="71.6" y="4.199999999999999" transform="translate(0,461)" style="font-family: 'Open Sans', verdana, arial, sans-serif; font-size: 12px; fill: rgb(36, 36, 36); fill-opacity: 1; white-space: pre; opacity: 1;">0</text></g><g class="ytick"><text text-anchor="end" x="71.6" y="4.199999999999999" style="font-family: 'Open Sans', verdana, arial, sans-serif; font-size: 12px; fill: rgb(36, 36, 36); fill-opacity: 1; white-space: pre; opacity: 1;" transform="translate(0,389.77)">0.02</text></g><g class="ytick"><text text-anchor="end" x="71.6" y="4.199999999999999" style="font-family: 'Open Sans', verdana, arial, sans-serif; font-size: 12px; fill: rgb(36, 36, 36); fill-opacity: 1; white-space: pre; opacity: 1;" transform="translate(0,318.55)">0.04</text></g><g class="ytick"><text text-anchor="end" x="71.6" y="4.199999999999999" style="font-family: 'Open Sans', verdana, arial, sans-serif; font-size: 12px; fill: rgb(36, 36, 36); fill-opacity: 1; white-space: pre; opacity: 1;" transform="translate(0,247.32)">0.06</text></g><g class="ytick"><text text-anchor="end" x="71.6" y="4.199999999999999" style="font-family: 'Open Sans', verdana, arial, sans-serif; font-size: 12px; fill: rgb(36, 36, 36); fill-opacity: 1; white-space: pre; opacity: 1;" transform="translate(0,176.1)">0.08</text></g><g class="ytick"><text text-anchor="end" x="71.6" y="4.199999999999999" style="font-family: 'Open Sans', verdana, arial, sans-serif; font-size: 12px; fill: rgb(36, 36, 36); fill-opacity: 1; white-space: pre; opacity: 1;" transform="translate(0,104.87)">0.1</text></g></g><g class="overaxes-above"/></g></g><g class="polarlayer"/><g class="smithlayer"/><g class="ternarylayer"/><g class="geolayer"/><g class="funnelarealayer"/><g class="pielayer"/><g class="iciclelayer"/><g class="treemaplayer"/><g class="sunburstlayer"/><g class="glimages"/><defs id="topdefs-e65506"><g class="clips"/><clipPath id="legende65506"><rect width="133" height="86" x="0" y="0"/></clipPath></defs><g class="layer-above"><g class="imagelayer"/><g class="shapelayer"/></g><g class="infolayer"><g class="legend" pointer-events="all" transform="translate(355.4,100)"><rect class="bg" shape-rendering="crispEdges" width="133" height="86" x="0" y="0" style="stroke: rgb(68, 68, 68); stroke-opacity: 1; fill: rgb(255, 255, 255); fill-opacity: 1; stroke-width: 0px;"/><g class="scrollbox" transform="" clip-path="url(#legende65506)"><g class="groups"><g class="traces" transform="translate(0,14.5)" style="opacity: 1;"><text class="legendtext" text-anchor="start" x="40" y="4.680000000000001" style="font-family: 'Open Sans', verdana, arial, sans-serif; font-size: 12px; fill: rgb(36, 36, 36); fill-opacity: 1; white-space: pre;">Control</text><g class="layers" style="opacity: 1;"><g class="legendfill"/><g class="legendlines"/><g class="legendsymbols"><g class="legendpoints"><path class="legendbox" d="M6,6H-6V-6H6Z" transform="translate(20,0)" style="stroke-width: 1px; fill: rgb(150, 150, 150); fill-opacity: 0.5; stroke: rgb(150, 150, 150); stroke-opacity: 1;"/></g></g></g><rect class="legendtoggle" x="0" y="-9.5" width="127.703125" height="19" style="fill: rgb(0, 0, 0); fill-opacity: 0;"/></g><g class="traces" transform="translate(0,33.5)" style="opacity: 1;"><text class="legendtext" text-anchor="start" x="40" y="4.680000000000001" style="font-family: 'Open Sans', verdana, arial, sans-serif; font-size: 12px; fill: rgb(36, 36, 36); fill-opacity: 1; white-space: pre;">DSS</text><g class="layers" style="opacity: 1;"><g class="legendfill"/><g class="legendlines"/><g class="legendsymbols"><g class="legendpoints"><path class="legendbox" d="M6,6H-6V-6H6Z" transform="translate(20,0)" style="stroke-width: 1px; fill: rgb(77, 175, 74); fill-opacity: 0.5; stroke: rgb(77, 175, 74); stroke-opacity: 1;"/></g></g></g><rect class="legendtoggle" x="0" y="-9.5" width="127.703125" height="19" style="fill: rgb(0, 0, 0); fill-opacity: 0;"/></g><g class="traces" transform="translate(0,52.5)" style="opacity: 1;"><text class="legendtext" text-anchor="start" x="40" y="4.680000000000001" style="font-family: 'Open Sans', verdana, arial, sans-serif; font-size: 12px; fill: rgb(36, 36, 36); fill-opacity: 1; white-space: pre;">RCJ</text><g class="layers" style="opacity: 1;"><g class="legendfill"/><g class="legendlines"/><g class="legendsymbols"><g class="legendpoints"><path class="legendbox" d="M6,6H-6V-6H6Z" transform="translate(20,0)" style="stroke-width: 1px; fill: rgb(55, 126, 184); fill-opacity: 0.5; stroke: rgb(55, 126, 184); stroke-opacity: 1;"/></g></g></g><rect class="legendtoggle" x="0" y="-9.5" width="127.703125" height="19" style="fill: rgb(0, 0, 0); fill-opacity: 0;"/></g><g class="traces" transform="translate(0,71.5)" style="opacity: 1;"><text class="legendtext" text-anchor="start" x="40" y="4.680000000000001" style="font-family: 'Open Sans', verdana, arial, sans-serif; font-size: 12px; fill: rgb(36, 36, 36); fill-opacity: 1; white-space: pre;">RCJ_plus_DSS</text><g class="layers" style="opacity: 1;"><g class="legendfill"/><g class="legendlines"/><g class="legendsymbols"><g class="legendpoints"><path class="legendbox" d="M6,6H-6V-6H6Z" transform="translate(20,0)" style="stroke-width: 1px; fill: rgb(152, 78, 163); fill-opacity: 0.5; stroke: rgb(152, 78, 163); stroke-opacity: 1;"/></g></g></g><rect class="legendtoggle" x="0" y="-9.5" width="127.703125" height="19" style="fill: rgb(0, 0, 0); fill-opacity: 0;"/></g></g></g><rect class="scrollbar" rx="20" ry="3" width="0" height="0" x="0" y="0" style="fill: rgb(128, 139, 164); fill-opacity: 1;"/></g><g class="g-gtitle"><text class="gtitle" x="250" y="50" text-anchor="middle" dy="0em" style="font-family: 'Open Sans', verdana, arial, sans-serif; font-size: 15px; fill: rgb(36, 36, 36); opacity: 1; font-weight: normal; white-space: pre;">Butyricimonas</text></g><g class="g-xtitle"><text class="xtitle" x="215" y="528.40625" text-anchor="middle" style="font-family: 'Open Sans', verdana, arial, sans-serif; font-size: 15px; fill: rgb(36, 36, 36); opacity: 1; font-weight: normal; white-space: pre;">Treatment Group</text></g><g class="g-ytitle"><text class="ytitle" transform="rotate(-90,18.84375,290)" x="18.84375" y="290" text-anchor="middle" style="font-family: 'Open Sans', verdana, arial, sans-serif; font-size: 15px; fill: rgb(36, 36, 36); opacity: 1; font-weight: normal; white-space: pre;">Species Relative Abundance</text></g><g class="annotation" data-index="0" style="opacity: 1;"><g class="annotation-text-g" transform="rotate(0,150.5,90.49999999999999)"><g class="cursor-pointer" transform="translate(94,81)"><rect class="bg" x="0.5" y="0.5" width="113" height="18" style="stroke-width: 1px; stroke: rgb(0, 0, 0); stroke-opacity: 0; fill: rgb(0, 0, 0); fill-opacity: 0;"/><text class="annotation-text" text-anchor="middle" x="57.03125" y="14" style="font-family: 'Open Sans', verdana, arial, sans-serif; font-size: 12px; fill: rgb(36, 36, 36); fill-opacity: 1; white-space: pre;">p-value: 5.88e-03</text></g></g></g></g></svg>