<svg class="main-svg" xmlns="http://www.w3.org/2000/svg" xmlns:xlink="http://www.w3.org/1999/xlink" width="700" height="500" style="" viewBox="0 0 700 500"><rect x="0" y="0" width="700" height="500" style="fill: rgb(255, 255, 255); fill-opacity: 1;"/><defs id="defs-90b7b0"><g class="clips"><clipPath id="clip90b7b0xyplot" class="plotclip"><rect width="466" height="320"/></clipPath><clipPath class="axesclip" id="clip90b7b0x"><rect x="80" y="0" width="466" height="500"/></clipPath><clipPath class="axesclip" id="clip90b7b0y"><rect x="0" y="100" width="700" height="320"/></clipPath><clipPath class="axesclip" id="clip90b7b0xy"><rect x="80" y="100" width="466" height="320"/></clipPath></g><g class="gradients"/><g class="patterns"/></defs><g class="bglayer"/><g class="layer-below"><g class="imagelayer"/><g class="shapelayer"/></g><g class="cartesianlayer"><g class="subplot xy"><g class="layer-subplot"><g class="shapelayer"/><g class="imagelayer"/></g><g class="minor-gridlayer"><g class="x"/><g class="y"/></g><g class="gridlayer"><g class="x"><path class="xgrid crisp" transform="translate(138.25,0)" d="M0,100v320" style="stroke: rgb(232, 232, 232); stroke-opacity: 1; stroke-width: 1px;"/><path class="xgrid crisp" transform="translate(254.75,0)" d="M0,100v320" style="stroke: rgb(232, 232, 232); stroke-opacity: 1; stroke-width: 1px;"/><path class="xgrid crisp" transform="translate(371.25,0)" d="M0,100v320" style="stroke: rgb(232, 232, 232); stroke-opacity: 1; stroke-width: 1px;"/><path class="xgrid crisp" transform="translate(487.75,0)" d="M0,100v320" style="stroke: rgb(232, 232, 232); stroke-opacity: 1; stroke-width: 1px;"/></g><g class="y"><path class="ygrid crisp" transform="translate(0,402.77)" d="M80,0h466" style="stroke: rgb(232, 232, 232); stroke-opacity: 1; stroke-width: 1px;"/><path class="ygrid crisp" transform="translate(0,346.44)" d="M80,0h466" style="stroke: rgb(232, 232, 232); stroke-opacity: 1; stroke-width: 1px;"/><path class="ygrid crisp" transform="translate(0,290.11)" d="M80,0h466" style="stroke: rgb(232, 232, 232); stroke-opacity: 1; stroke-width: 1px;"/><path class="ygrid crisp" transform="translate(0,233.78)" d="M80,0h466" style="stroke: rgb(232, 232, 232); stroke-opacity: 1; stroke-width: 1px;"/><path class="ygrid crisp" transform="translate(0,177.45)" d="M80,0h466" style="stroke: rgb(232, 232, 232); stroke-opacity: 1; stroke-width: 1px;"/><path class="ygrid crisp" transform="translate(0,121.12)" d="M80,0h466" style="stroke: rgb(232, 232, 232); stroke-opacity: 1; stroke-width: 1px;"/></g></g><g class="zerolinelayer"/><path class="xlines-below"/><path class="ylines-below"/><g class="overlines-below"/><g class="xaxislayer-below"/><g class="yaxislayer-below"/><g class="overaxes-below"/><g class="plot" transform="translate(80,100)" clip-path="url(#clip90b7b0xyplot)"><g class="boxlayer mlayer"><g class="trace boxes" style="opacity: 1;"><path class="box" d="M29.71,277.29H86.79M29.71,302H86.79V240.85H29.71ZM58.25,302V304M58.25,240.85V227.11M52.54,304H63.96M52.54,227.11H63.96" style="vector-effect: non-scaling-stroke; stroke-width: 1px; stroke: rgb(150, 150, 150); stroke-opacity: 1; fill: rgb(150, 150, 150); fill-opacity: 0.5;"/><g class="points"><path class="point" transform="translate(58.25,304)" d="M5,0A5,5 0 1,1 0,-5A5,5 0 0,1 5,0Z" style="opacity: 1; stroke-width: 0px; fill: rgb(150, 150, 150); fill-opacity: 1;"/><path class="point" transform="translate(58.25,300)" d="M5,0A5,5 0 1,1 0,-5A5,5 0 0,1 5,0Z" style="opacity: 1; stroke-width: 0px; fill: rgb(150, 150, 150); fill-opacity: 1;"/><path class="point" transform="translate(58.25,254.59)" d="M5,0A5,5 0 1,1 0,-5A5,5 0 0,1 5,0Z" style="opacity: 1; stroke-width: 0px; fill: rgb(150, 150, 150); fill-opacity: 1;"/><path class="point" transform="translate(58.25,227.11)" d="M5,0A5,5 0 1,1 0,-5A5,5 0 0,1 5,0Z" style="opacity: 1; stroke-width: 0px; fill: rgb(150, 150, 150); fill-opacity: 1;"/></g></g><g class="trace boxes" style="opacity: 1;"><path class="box" d="M146.21,136.48H203.29M146.21,177.72H203.29V71.84H146.21ZM174.75,177.72V202M174.75,71.84V24.16M169.04,202H180.46M169.04,24.16H180.46" style="vector-effect: non-scaling-stroke; stroke-width: 1px; stroke: rgb(77, 175, 74); stroke-opacity: 1; fill: rgb(77, 175, 74); fill-opacity: 0.5;"/><g class="points"><path class="point" transform="translate(174.75,202)" d="M5,0A5,5 0 1,1 0,-5A5,5 0 0,1 5,0Z" style="opacity: 1; stroke-width: 0px; fill: rgb(77, 175, 74); fill-opacity: 1;"/><path class="point" transform="translate(174.75,153.44)" d="M5,0A5,5 0 1,1 0,-5A5,5 0 0,1 5,0Z" style="opacity: 1; stroke-width: 0px; fill: rgb(77, 175, 74); fill-opacity: 1;"/><path class="point" transform="translate(174.75,119.52)" d="M5,0A5,5 0 1,1 0,-5A5,5 0 0,1 5,0Z" style="opacity: 1; stroke-width: 0px; fill: rgb(77, 175, 74); fill-opacity: 1;"/><path class="point" transform="translate(174.75,24.16)" d="M5,0A5,5 0 1,1 0,-5A5,5 0 0,1 5,0Z" style="opacity: 1; stroke-width: 0px; fill: rgb(77, 175, 74); fill-opacity: 1;"/></g></g><g class="trace boxes" style="opacity: 1;"><path class="box" d="M262.71,233.92H319.79M262.71,255.15H319.79V146.1H262.71ZM291.25,255.15V266.58M291.25,146.1V68.1M285.54,266.58H296.96M285.54,68.1H296.96" style="vector-effect: non-scaling-stroke; stroke-width: 1px; stroke: rgb(55, 126, 184); stroke-opacity: 1; fill: rgb(55, 126, 184); fill-opacity: 0.5;"/><g class="points"><path class="point" transform="translate(291.25,266.58)" d="M5,0A5,5 0 1,1 0,-5A5,5 0 0,1 5,0Z" style="opacity: 1; stroke-width: 0px; fill: rgb(55, 126, 184); fill-opacity: 1;"/><path class="point" transform="translate(291.25,243.73)" d="M5,0A5,5 0 1,1 0,-5A5,5 0 0,1 5,0Z" style="opacity: 1; stroke-width: 0px; fill: rgb(55, 126, 184); fill-opacity: 1;"/><path class="point" transform="translate(291.25,224.1)" d="M5,0A5,5 0 1,1 0,-5A5,5 0 0,1 5,0Z" style="opacity: 1; stroke-width: 0px; fill: rgb(55, 126, 184); fill-opacity: 1;"/><path class="point" transform="translate(291.25,68.1)" d="M5,0A5,5 0 1,1 0,-5A5,5 0 0,1 5,0Z" style="opacity: 1; stroke-width: 0px; fill: rgb(55, 126, 184); fill-opacity: 1;"/></g></g><g class="trace boxes" style="opacity: 1;"><path class="box" d="M379.21,160.91H436.29M379.21,204.81H436.29V77.88H379.21ZM407.75,204.81V220.06M407.75,77.88V23.5M402.04,220.06H413.46M402.04,23.5H413.46" style="vector-effect: non-scaling-stroke; stroke-width: 1px; stroke: rgb(152, 78, 163); stroke-opacity: 1; fill: rgb(152, 78, 163); fill-opacity: 0.5;"/><g class="points"><path class="point" transform="translate(407.75,220.06)" d="M5,0A5,5 0 1,1 0,-5A5,5 0 0,1 5,0Z" style="opacity: 1; stroke-width: 0px; fill: rgb(152, 78, 163); fill-opacity: 1;"/><path class="point" transform="translate(407.75,189.56)" d="M5,0A5,5 0 1,1 0,-5A5,5 0 0,1 5,0Z" style="opacity: 1; stroke-width: 0px; fill: rgb(152, 78, 163); fill-opacity: 1;"/><path class="point" transform="translate(407.75,132.27)" d="M5,0A5,5 0 1,1 0,-5A5,5 0 0,1 5,0Z" style="opacity: 1; stroke-width: 0px; fill: rgb(152, 78, 163); fill-opacity: 1;"/><path class="point" transform="translate(407.75,23.5)" d="M5,0A5,5 0 1,1 0,-5A5,5 0 0,1 5,0Z" style="opacity: 1; stroke-width: 0px; fill: rgb(152, 78, 163); fill-opacity: 1;"/></g></g></g><g class="scatterlayer mlayer"><g class="trace scatter trace9b6d51" style="stroke-miterlimit: 2; opacity: 1;"><g class="fills"/><g class="errorbars"/><g class="lines"/><g class="points"><path class="point" transform="translate(58.25,227.11)" d="M7.2,2.4H2.4V7.2H-2.4V2.4H-7.2V-2.4H-2.4V-7.2H2.4V-2.4H7.2Z" style="opacity: 0.7; stroke-width: 1px; fill: rgb(127, 127, 127); fill-opacity: 1; stroke: rgb(0, 0, 0); stroke-opacity: 1;"/><path class="point" transform="translate(174.75,24.16)" d="M7.2,2.4H2.4V7.2H-2.4V2.4H-7.2V-2.4H-2.4V-7.2H2.4V-2.4H7.2Z" style="opacity: 0.7; stroke-width: 1px; fill: rgb(127, 127, 127); fill-opacity: 1; stroke: rgb(0, 0, 0); stroke-opacity: 1;"/><path class="point" transform="translate(291.25,68.1)" d="M7.2,2.4H2.4V7.2H-2.4V2.4H-7.2V-2.4H-2.4V-7.2H2.4V-2.4H7.2Z" style="opacity: 0.7; stroke-width: 1px; fill: rgb(127, 127, 127); fill-opacity: 1; stroke: rgb(0, 0, 0); stroke-opacity: 1;"/><path class="point" transform="translate(407.75,23.5)" d="M7.2,2.4H2.4V7.2H-2.4V2.4H-7.2V-2.4H-2.4V-7.2H2.4V-2.4H7.2Z" style="opacity: 0.7; stroke-width: 1px; fill: rgb(127, 127, 127); fill-opacity: 1; stroke: rgb(0, 0, 0); stroke-opacity: 1;"/></g><g class="text"/></g></g></g><g class="overplot"/><path class="xlines-above crisp" d="M79,420.5H546" style="fill: none; stroke-width: 1px; stroke: rgb(36, 36, 36); stroke-opacity: 1;"/><path class="ylines-above crisp" d="M79.5,100V420" style="fill: none; stroke-width: 1px; stroke: rgb(36, 36, 36); stroke-opacity: 1;"/><g class="overlines-above"/><g class="xaxislayer-above"><path class="xtick ticks crisp" d="M0,421v5" transform="translate(138.25,0)" style="stroke: rgb(68, 68, 68); stroke-opacity: 1; stroke-width: 1px;"/><path class="xtick ticks crisp" d="M0,421v5" transform="translate(254.75,0)" style="stroke: rgb(68, 68, 68); stroke-opacity: 1; stroke-width: 1px;"/><path class="xtick ticks crisp" d="M0,421v5" transform="translate(371.25,0)" style="stroke: rgb(68, 68, 68); stroke-opacity: 1; stroke-width: 1px;"/><path class="xtick ticks crisp" d="M0,421v5" transform="translate(487.75,0)" style="stroke: rgb(68, 68, 68); stroke-opacity: 1; stroke-width: 1px;"/><g class="xtick"><text text-anchor="middle" x="0" y="440.4" transform="translate(138.25,0)" style="font-family: 'Open Sans', verdana, arial, sans-serif; font-size: 12px; fill: rgb(36, 36, 36); fill-opacity: 1; white-space: pre; opacity: 1;">Control</text></g><g class="xtick"><text text-anchor="middle" x="0" y="440.4" transform="translate(254.75,0)" style="font-family: 'Open Sans', verdana, arial, sans-serif; font-size: 12px; fill: rgb(36, 36, 36); fill-opacity: 1; white-space: pre; opacity: 1;">DSS</text></g><g class="xtick"><text text-anchor="middle" x="0" y="440.4" transform="translate(371.25,0)" style="font-family: 'Open Sans', verdana, arial, sans-serif; font-size: 12px; fill: rgb(36, 36, 36); fill-opacity: 1; white-space: pre; opacity: 1;">RCJ</text></g><g class="xtick"><text text-anchor="middle" x="0" y="440.4" transform="translate(487.75,0)" style="font-family: 'Open Sans', verdana, arial, sans-serif; font-size: 12px; fill: rgb(36, 36, 36); fill-opacity: 1; white-space: pre; opacity: 1;">RCJ_plus_DSS</text></g></g><g class="yaxislayer-above"><path class="ytick ticks crisp" d="M79,0h-5" transform="translate(0,402.77)" style="stroke: rgb(68, 68, 68); stroke-opacity: 1; stroke-width: 1px;"/><path class="ytick ticks crisp" d="M79,0h-5" transform="translate(0,346.44)" style="stroke: rgb(68, 68, 68); stroke-opacity: 1; stroke-width: 1px;"/><path class="ytick ticks crisp" d="M79,0h-5" transform="translate(0,290.11)" style="stroke: rgb(68, 68, 68); stroke-opacity: 1; stroke-width: 1px;"/><path class="ytick ticks crisp" d="M79,0h-5" transform="translate(0,233.78)" style="stroke: rgb(68, 68, 68); stroke-opacity: 1; stroke-width: 1px;"/><path class="ytick ticks crisp" d="M79,0h-5" transform="translate(0,177.45)" style="stroke: rgb(68, 68, 68); stroke-opacity: 1; stroke-width: 1px;"/><path class="ytick ticks crisp" d="M79,0h-5" transform="translate(0,121.12)" style="stroke: rgb(68, 68, 68); stroke-opacity: 1; stroke-width: 1px;"/><g class="ytick"><text text-anchor="end" x="71.6" y="4.199999999999999" transform="translate(0,402.77)" style="font-family: 'Open Sans', verdana, arial, sans-serif; font-size: 12px; fill: rgb(36, 36, 36); fill-opacity: 1; white-space: pre; opacity: 1;">20</text></g><g class="ytick"><text text-anchor="end" x="71.6" y="4.199999999999999" style="font-family: 'Open Sans', verdana, arial, sans-serif; font-size: 12px; fill: rgb(36, 36, 36); fill-opacity: 1; white-space: pre; opacity: 1;" transform="translate(0,346.44)">40</text></g><g class="ytick"><text text-anchor="end" x="71.6" y="4.199999999999999" style="font-family: 'Open Sans', verdana, arial, sans-serif; font-size: 12px; fill: rgb(36, 36, 36); fill-opacity: 1; white-space: pre; opacity: 1;" transform="translate(0,290.11)">60</text></g><g class="ytick"><text text-anchor="end" x="71.6" y="4.199999999999999" style="font-family: 'Open Sans', verdana, arial, sans-serif; font-size: 12px; fill: rgb(36, 36, 36); fill-opacity: 1; white-space: pre; opacity: 1;" transform="translate(0,233.78)">80</text></g><g class="ytick"><text text-anchor="end" x="71.6" y="4.199999999999999" style="font-family: 'Open Sans', verdana, arial, sans-serif; font-size: 12px; fill: rgb(36, 36, 36); fill-opacity: 1; white-space: pre; opacity: 1;" transform="translate(0,177.45)">100</text></g><g class="ytick"><text text-anchor="end" x="71.6" y="4.199999999999999" style="font-family: 'Open Sans', verdana, arial, sans-serif; font-size: 12px; fill: rgb(36, 36, 36); fill-opacity: 1; white-space: pre; opacity: 1;" transform="translate(0,121.12)">120</text></g></g><g class="overaxes-above"/></g></g><g class="polarlayer"/><g class="smithlayer"/><g class="ternarylayer"/><g class="geolayer"/><g class="funnelarealayer"/><g class="pielayer"/><g class="iciclelayer"/><g class="treemaplayer"/><g class="sunburstlayer"/><g class="glimages"/><defs id="topdefs-90b7b0"><g class="clips"/><clipPath id="legend90b7b0"><rect width="133" height="105" x="0" y="0"/></clipPath></defs><g class="layer-above"><g class="imagelayer"/><g class="shapelayer"/></g><g class="infolayer"><g class="legend" pointer-events="all" transform="translate(555.3199999999999,100)"><rect class="bg" shape-rendering="crispEdges" width="133" height="105" x="0" y="0" style="stroke: rgb(68, 68, 68); stroke-opacity: 1; fill: rgb(255, 255, 255); fill-opacity: 1; stroke-width: 0px;"/><g class="scrollbox" transform="" clip-path="url(#legend90b7b0)"><g class="groups"><g class="traces" transform="translate(0,14.5)" style="opacity: 1;"><text class="legendtext" text-anchor="start" x="40" y="4.680000000000001" style="font-family: 'Open Sans', verdana, arial, sans-serif; font-size: 12px; fill: rgb(36, 36, 36); fill-opacity: 1; white-space: pre;">Control</text><g class="layers" style="opacity: 1;"><g class="legendfill"/><g class="legendlines"/><g class="legendsymbols"><g class="legendpoints"><path class="legendbox" d="M6,6H-6V-6H6Z" transform="translate(20,0)" style="stroke-width: 1px; fill: rgb(150, 150, 150); fill-opacity: 0.5; stroke: rgb(150, 150, 150); stroke-opacity: 1;"/></g></g></g><rect class="legendtoggle" x="0" y="-9.5" width="127.703125" height="19" style="fill: rgb(0, 0, 0); fill-opacity: 0;"/></g><g class="traces" transform="translate(0,33.5)" style="opacity: 1;"><text class="legendtext" text-anchor="start" x="40" y="4.680000000000001" style="font-family: 'Open Sans', verdana, arial, sans-serif; font-size: 12px; fill: rgb(36, 36, 36); fill-opacity: 1; white-space: pre;">DSS</text><g class="layers" style="opacity: 1;"><g class="legendfill"/><g class="legendlines"/><g class="legendsymbols"><g class="legendpoints"><path class="legendbox" d="M6,6H-6V-6H6Z" transform="translate(20,0)" style="stroke-width: 1px; fill: rgb(77, 175, 74); fill-opacity: 0.5; stroke: rgb(77, 175, 74); stroke-opacity: 1;"/></g></g></g><rect class="legendtoggle" x="0" y="-9.5" width="127.703125" height="19" style="fill: rgb(0, 0, 0); fill-opacity: 0;"/></g><g class="traces" transform="translate(0,52.5)" style="opacity: 1;"><text class="legendtext" text-anchor="start" x="40" y="4.680000000000001" style="font-family: 'Open Sans', verdana, arial, sans-serif; font-size: 12px; fill: rgb(36, 36, 36); fill-opacity: 1; white-space: pre;">RCJ</text><g class="layers" style="opacity: 1;"><g class="legendfill"/><g class="legendlines"/><g class="legendsymbols"><g class="legendpoints"><path class="legendbox" d="M6,6H-6V-6H6Z" transform="translate(20,0)" style="stroke-width: 1px; fill: rgb(55, 126, 184); fill-opacity: 0.5; stroke: rgb(55, 126, 184); stroke-opacity: 1;"/></g></g></g><rect class="legendtoggle" x="0" y="-9.5" width="127.703125" height="19" style="fill: rgb(0, 0, 0); fill-opacity: 0;"/></g><g class="traces" transform="translate(0,71.5)" style="opacity: 1;"><text class="legendtext" text-anchor="start" x="40" y="4.680000000000001" style="font-family: 'Open Sans', verdana, arial, sans-serif; font-size: 12px; fill: rgb(36, 36, 36); fill-opacity: 1; white-space: pre;">RCJ_plus_DSS</text><g class="layers" style="opacity: 1;"><g class="legendfill"/><g class="legendlines"/><g class="legendsymbols"><g class="legendpoints"><path class="legendbox" d="M6,6H-6V-6H6Z" transform="translate(20,0)" style="stroke-width: 1px; fill: rgb(152, 78, 163); fill-opacity: 0.5; stroke: rgb(152, 78, 163); stroke-opacity: 1;"/></g></g></g><rect class="legendtoggle" x="0" y="-9.5" width="127.703125" height="19" style="fill: rgb(0, 0, 0); fill-opacity: 0;"/></g><g class="traces" transform="translate(0,90.5)" style="opacity: 1;"><text class="legendtext" text-anchor="start" x="40" y="4.680000000000001" style="font-family: 'Open Sans', verdana, arial, sans-serif; font-size: 12px; fill: rgb(36, 36, 36); fill-opacity: 1; white-space: pre;">Pooled</text><g class="layers" style="opacity: 1;"><g class="legendfill"/><g class="legendlines"/><g class="legendsymbols"><g class="legendpoints"><path class="scatterpts" transform="translate(20,0)" d="M7.2,2.4H2.4V7.2H-2.4V2.4H-7.2V-2.4H-2.4V-7.2H2.4V-2.4H7.2Z" style="opacity: 0.7; stroke-width: 1px; fill: rgb(127, 127, 127); fill-opacity: 1; stroke: rgb(0, 0, 0); stroke-opacity: 1;"/></g></g></g><rect class="legendtoggle" x="0" y="-9.5" width="127.703125" height="19" style="fill: rgb(0, 0, 0); fill-opacity: 0;"/></g></g></g><rect class="scrollbar" rx="20" ry="3" width="0" height="0" x="0" y="0" style="fill: rgb(128, 139, 164); fill-opacity: 1;"/></g><g class="g-gtitle"><text class="gtitle" x="350" y="50" text-anchor="middle" dy="0em" style="font-family: 'Open Sans', verdana, arial, sans-serif; font-size: 15px; fill: rgb(36, 36, 36); opacity: 1; font-weight: normal; white-space: pre;">PWY-5154: L-arginine biosynthesis III (via N-acetyl-L-citrulline)</text></g><g class="g-xtitle"><text class="xtitle" x="313" y="468.40625" text-anchor="middle" style="font-family: 'Open Sans', verdana, arial, sans-serif; font-size: 15px; fill: rgb(36, 36, 36); opacity: 1; font-weight: normal; white-space: pre;">Treatment Group</text></g><g class="g-ytitle"><text class="ytitle" transform="rotate(-90,23.203125,260)" x="23.203125" y="260" text-anchor="middle" style="font-family: 'Open Sans', verdana, arial, sans-serif; font-size: 15px; fill: rgb(36, 36, 36); opacity: 1; font-weight: normal; white-space: pre;">Pathway Abundance</text></g><g class="annotation" data-index="0" style="opacity: 1;"><g class="annotation-text-g" transform="rotate(0,152.66,125)"><g class="cursor-pointer" transform="translate(85,100)"><rect class="bg" x="0.5" y="0.5" width="135" height="49" style="stroke-width: 1px; stroke: rgb(0, 0, 0); stroke-opacity: 1; fill: rgb(0, 0, 0); fill-opacity: 0;"/><text class="annotation-text" text-anchor="start" x="2" y="14" style="font-family: 'Open Sans', verdana, arial, sans-serif; font-size: 12px; fill: rgb(36, 36, 36); fill-opacity: 1; white-space: pre;"><tspan class="line" dy="0em" x="2" y="14">Association:DSS_only</tspan><tspan class="line" dy="1.3em" x="2" y="14">P_value:8.9e-04</tspan><tspan class="line" dy="2.6em" x="2" y="14">Coefficient:4.5e-01</tspan></text></g></g></g></g></svg>